<svg height="51.19" viewBox="0 0 391.656 51.19" width="391.656" xmlns="http://www.w3.org/2000/svg"><path d="m424.445 7337.36a5.63 5.63 0 0 0 -4.548-1.82 6.32 6.32 0 0 0 -5.889 3.61q-1.963 3.6-1.963 10.02 0 6.03 2.487 9.24a9.357 9.357 0 0 0 11.19 2.25 8.034 8.034 0 0 0 2.814-2.16l.785.67a14.575 14.575 0 0 0 -.785 1.92q-.329.99-.654 1.98a12.617 12.617 0 0 1 -3.632 1.89 16.113 16.113 0 0 1 -5.2.76 20.548 20.548 0 0 1 -8.051-1.39 13.837 13.837 0 0 1 -5.268-3.77 14.4 14.4 0 0 1 -2.847-5.4 22.117 22.117 0 0 1 -.851-6.05 18.424 18.424 0 0 1 1.211-6.75 15.364 15.364 0 0 1 3.469-5.37 16.342 16.342 0 0 1 5.464-3.54 18.955 18.955 0 0 1 7.134-1.29 20.267 20.267 0 0 1 6.314.86 26.394 26.394 0 0 1 4.941 2.25 19.309 19.309 0 0 0 -1.471 3.25 24.384 24.384 0 0 0 -1.016 3.64h-1.57a9.927 9.927 0 0 0 -2.064-4.8zm13.451-11.42c-.09-3.61-.219-7.28-.393-10.98.566.08 1.286.16 2.159.23s1.789.1 2.749.1 1.876-.04 2.749-.1 1.592-.15 2.16-.23c-.175 3.7-.307 7.37-.394 10.98s-.13 7.59-.13 11.92l.13.13a12.7 12.7 0 0 1 4.155-4.3 10.361 10.361 0 0 1 5.6-1.53q4.908 0 7.558 2.88t2.651 9.3q0 3.375-.131 5.96t-.132 5.16c0 1.41.033 2.95.1 4.6s.141 3.25.23 4.8a14.314 14.314 0 0 0 -2.16-.13h-5.5a14.25 14.25 0 0 0 -2.158.13 80.347 80.347 0 0 0 .588-8.11q.13-4.665.131-10.69 0-4.17-1.408-6.12a4.946 4.946 0 0 0 -8.279.63 15.384 15.384 0 0 0 -1.373 7.15v2.64c0 .62.009 1.52.033 2.68s.053 2.45.1 3.84.1 2.81.164 4.24.14 2.68.23 3.74a14.314 14.314 0 0 0 -2.16-.13h-5.5a14.264 14.264 0 0 0 -2.159.13c.174-3.58.3-7.17.393-10.79s.129-7.59.129-11.91v-4.3q-.003-6.495-.128-11.92zm37.428 16.15a16.427 16.427 0 0 1 3.568-5.53 14.3 14.3 0 0 1 5.136-3.3 16.884 16.884 0 0 1 5.989-1.1q7.656 0 11.846 4.37t4.187 11.85a21.217 21.217 0 0 1 -1.178 7.28 16.133 16.133 0 0 1 -3.305 5.53 13.344 13.344 0 0 1 -5.071 3.4 18.022 18.022 0 0 1 -6.478 1.13 21.44 21.44 0 0 1 -5.793-.8 13.5 13.5 0 0 1 -8.836-7.61 17.769 17.769 0 0 1 -1.406-7.48 20.53 20.53 0 0 1 1.341-7.74zm19.6-3.74a4.916 4.916 0 0 0 -4.779-3.21q-3.011 0-4.744 3.58t-1.734 11.18a37.92 37.92 0 0 0 .326 5.16 16.079 16.079 0 0 0 1.081 4.14 7.115 7.115 0 0 0 1.963 2.75 4.647 4.647 0 0 0 3.042.99q6.283 0 6.284-15.55a22.726 22.726 0 0 0 -1.437-9.04zm39.84-.99a5.632 5.632 0 0 0 -4.549-1.82 6.321 6.321 0 0 0 -5.889 3.61q-1.963 3.6-1.963 10.02 0 6.03 2.487 9.24a9.357 9.357 0 0 0 11.19 2.25 8.025 8.025 0 0 0 2.814-2.16l.785.67a14.575 14.575 0 0 0 -.785 1.92q-.329.99-.654 1.98a12.617 12.617 0 0 1 -3.632 1.89 16.109 16.109 0 0 1 -5.2.76 20.552 20.552 0 0 1 -8.051-1.39 13.837 13.837 0 0 1 -5.268-3.77 14.4 14.4 0 0 1 -2.847-5.4 22.155 22.155 0 0 1 -.851-6.05 18.424 18.424 0 0 1 1.211-6.75 15.364 15.364 0 0 1 3.469-5.37 16.342 16.342 0 0 1 5.464-3.54 18.958 18.958 0 0 1 7.134-1.29 20.274 20.274 0 0 1 6.315.86 26.452 26.452 0 0 1 4.941 2.25 19.226 19.226 0 0 0 -1.472 3.25 24.255 24.255 0 0 0 -1.015 3.64h-1.571a9.936 9.936 0 0 0 -2.061-4.8zm14.266 4.73a16.457 16.457 0 0 1 3.568-5.53 14.309 14.309 0 0 1 5.137-3.3 16.884 16.884 0 0 1 5.989-1.1q7.656 0 11.846 4.37t4.186 11.85a21.218 21.218 0 0 1 -1.177 7.28 16.133 16.133 0 0 1 -3.305 5.53 13.344 13.344 0 0 1 -5.071 3.4 18.024 18.024 0 0 1 -6.479 1.13 21.433 21.433 0 0 1 -5.792-.8 13.5 13.5 0 0 1 -8.836-7.61 17.753 17.753 0 0 1 -1.406-7.48 20.55 20.55 0 0 1 1.342-7.74zm19.6-3.74a4.913 4.913 0 0 0 -4.778-3.21q-3.01 0-4.744 3.58t-1.735 11.18a37.914 37.914 0 0 0 .327 5.16 16.079 16.079 0 0 0 1.081 4.14 7.105 7.105 0 0 0 1.963 2.75 4.645 4.645 0 0 0 3.042.99q6.284 0 6.283-15.55a22.708 22.708 0 0 0 -1.435-9.04zm-180.93 9.21v7.28h-24.445v-7.28zm210.721-9.57a13.878 13.878 0 0 1 4.285-4.3 10.361 10.361 0 0 1 5.6-1.53q4.908 0 7.558 2.88t2.651 9.3q0 3.375-.131 5.96t-.132 5.16c0 1.41.033 2.95.1 4.6s.141 3.25.23 4.8a14.314 14.314 0 0 0 -2.16-.13h-5.5a14.264 14.264 0 0 0 -2.159.13 80.028 80.028 0 0 0 .589-8.11q.13-4.665.131-10.69 0-4.17-1.408-6.12a4.946 4.946 0 0 0 -8.279.63 15.384 15.384 0 0 0 -1.373 7.15v2.64c0 2.7.033 5.23.1 7.62s.206 4.67.425 6.88a14.02 14.02 0 0 0 -2.127-.13h-5.532a15.062 15.062 0 0 0 -2.158.13q.327-3.315.424-6.88c.065-2.39.1-4.92.1-7.62v-2.64q0-4.035-.1-7.58t-.424-7.12q1.178.135 2.323.24c.763.06 1.537.1 2.323.1s1.559-.04 2.322-.1 1.582-.15 2.455-.24l-.262 4.97h.132zm39.264 16.01a12.494 12.494 0 0 0 1.6 4.01 7.972 7.972 0 0 0 2.748 2.65 7.67 7.67 0 0 0 3.895.96 12.176 12.176 0 0 0 8.049-2.98l.785.59-1.439 3.71a13.278 13.278 0 0 1 -3.928 2.02 19.8 19.8 0 0 1 -6.02.76 20.6 20.6 0 0 1 -6.086-.89 12.967 12.967 0 0 1 -5.073-2.95 14.414 14.414 0 0 1 -3.468-5.2 19.931 19.931 0 0 1 -1.276-7.51 22.117 22.117 0 0 1 1.145-7.48 14.79 14.79 0 0 1 3.173-5.29 13.045 13.045 0 0 1 4.81-3.18 17.016 17.016 0 0 1 6.055-1.06q6.478 0 9.914 3.84t3.436 10.86v1.39a3.086 3.086 0 0 1 -.065.79h-18.779a22.328 22.328 0 0 0 .524 4.96zm8.343-15.88q-1.079-2.985-3.632-2.98a3.277 3.277 0 0 0 -2.421.99 7.322 7.322 0 0 0 -1.57 2.55 17.24 17.24 0 0 0 -.884 3.51 33.936 33.936 0 0 0 -.36 3.87h10.078a25.867 25.867 0 0 0 -1.211-7.94zm-381.283-11.79q-.135-5.565-.4-11.25.869.135 2.209.24c.894.06 1.832.1 2.815.1s1.921-.04 2.815-.1 1.629-.15 2.209-.24q-.27 5.685-.4 11.25-.135 5.55-.135 12.19v4.4q0 6.645.135 12.19.129 5.565.4 11.05a13.531 13.531 0 0 0 -2.209-.14h-5.63a13.523 13.523 0 0 0 -2.209.14q.268-5.49.4-11.05t.131-12.19v-4.4q0-6.645-.131-12.19m25.788-9.35a5.29 5.29 0 0 1 7.5 0 5.434 5.434 0 0 1 0 7.58 5.29 5.29 0 0 1 -7.5 0 5.434 5.434 0 0 1 0-7.58m-.837 23.87q-.1-3.615-.434-7.28.936.135 2.209.24c.849.07 1.787.1 2.815.1a29.113 29.113 0 0 0 5.024-.34q-.338 3.66-.438 7.28t-.1 7.76v2.71c0 2.76.034 5.35.1 7.79s.213 4.79.438 7.05a13.349 13.349 0 0 0 -2.18-.14h-5.659a14.273 14.273 0 0 0 -2.209.14q.332-3.39.434-7.05c.067-2.44.1-5.03.1-7.79v-2.71q.004-4.125-.096-7.76zm24.752-14.52q-.134-5.565-.4-11.25.868.135 2.209.24c.893.06 1.831.1 2.814.1s1.922-.04 2.815-.1 1.63-.15 2.209-.24q-.268 5.685-.4 11.25-.134 5.55-.134 12.19v4.4q0 6.645.134 12.19.129 5.565.4 11.05a13.515 13.515 0 0 0 -2.209-.14h-5.629a13.515 13.515 0 0 0 -2.209.14q.268-5.49.4-11.05t.131-12.19v-4.4q0-6.645-.131-12.19m25.523-9.35a5.29 5.29 0 0 1 7.5 0 5.434 5.434 0 0 1 0 7.58 5.29 5.29 0 0 1 -7.5 0 5.424 5.424 0 0 1 0-7.58m-.837 23.87q-.1-3.615-.438-7.28.938.135 2.21.24c.848.07 1.786.1 2.814.1a29.042 29.042 0 0 0 5.024-.34q-.336 3.66-.434 7.28t-.1 7.76v2.71c0 2.76.033 5.35.1 7.79s.21 4.79.434 7.05a13.251 13.251 0 0 0 -2.175-.14h-5.663a14.287 14.287 0 0 0 -2.21.14q.337-3.39.438-7.05c.067-2.44.1-5.03.1-7.79v-2.71q-.003-4.125-.1-7.76z" fill="#583c27" fill-rule="evenodd" transform="translate(-264.344 -7314.97)"/></svg>