<svg height="52.84" viewBox="0 0 294.156 52.84" width="294.156" xmlns="http://www.w3.org/2000/svg"><path d="m290.208 8092.55c-.627-4.35-3.265-6.94-7.016-6.94-5.416 0-8.678 5.19-8.678 13.67 0 4.56.972 7.99 2.845 10.23a9.881 9.881 0 0 0 7.361 3.23 10.19 10.19 0 0 0 7.5-3.09l.972.64a18.072 18.072 0 0 0 -1.458 4.06 19.627 19.627 0 0 1 -10.556 2.87c-10.347 0-16.942-6.65-16.942-17.1 0-10.86 7.013-17.66 18.262-17.66a20.9 20.9 0 0 1 11.388 2.94 55.207 55.207 0 0 0 -2.431 7.15h-1.248zm19.781-4.49c3.472-3.99 6.458-5.6 10.416-5.6a10.951 10.951 0 0 1 7.985 3.29c1.875 2.03 2.709 4.49 2.709 8.13 0 .63-.069 2.81-.138 5.19-.072 1.4-.072 2.74-.072 4.35 0 3.01.141 9.18.348 13.03a38.765 38.765 0 0 0 -5-.35 50.843 50.843 0 0 0 -5.347.35 152.4 152.4 0 0 0 .765-16.82c0-4.56-.21-6.59-.9-8.13a4.955 4.955 0 0 0 -4.792-3.23c-2.569 0-4.375 1.48-5.276 4.35a25.228 25.228 0 0 0 -.7 7.22c0 4.28.279 11.43.556 16.61a36.794 36.794 0 0 0 -5.069-.35 44.21 44.21 0 0 0 -5.278.35c.417-7.71.7-17.52.7-27.76 0-8.55-.141-12.47-.7-24.32a34.007 34.007 0 0 0 5.278.35 30.344 30.344 0 0 0 5.069-.35c-.277 4.98-.556 13.81-.556 19.35v4.34zm63.112 12.06c0 10.94-6.109 17.1-16.942 17.1-10.9 0-16.873-6.16-16.873-17.38s5.971-17.38 16.873-17.38c11.111 0 16.941 6.1 16.941 17.66zm-23.607-.28c0 10.45 1.873 14.58 6.665 14.58s6.736-4.21 6.736-14.37c0-10.58-1.944-14.79-6.736-14.79s-6.665 4.21-6.665 14.58zm56.1-7.29c-.627-4.35-3.264-6.94-7.015-6.94-5.416 0-8.678 5.19-8.678 13.67 0 4.56.972 7.99 2.845 10.23a9.878 9.878 0 0 0 7.36 3.23 10.192 10.192 0 0 0 7.5-3.09l.972.64a18.072 18.072 0 0 0 -1.458 4.06 19.631 19.631 0 0 1 -10.557 2.87c-10.346 0-16.942-6.65-16.942-17.1 0-10.86 7.013-17.66 18.263-17.66a20.9 20.9 0 0 1 11.387 2.94 55.164 55.164 0 0 0 -2.43 7.15h-1.249zm44.015 7.57c0 10.94-6.109 17.1-16.942 17.1-10.9 0-16.872-6.16-16.872-17.38s5.971-17.38 16.872-17.38c11.111 0 16.941 6.1 16.941 17.66zm-23.609-.28c0 10.45 1.873 14.58 6.664 14.58s6.737-4.21 6.737-14.37c0-10.58-1.945-14.79-6.737-14.79s-6.664 4.21-6.664 14.58zm63.163-16.26a27.273 27.273 0 0 0 4.584-.35 47.189 47.189 0 0 0 -.279 5.19c2.569-3.86 6.182-5.96 10.485-5.96 4.585 0 7.5 2.03 9.1 6.45 2.707-4.35 6.319-6.45 10.763-6.45a10.561 10.561 0 0 1 8.054 3.29c1.735 1.96 2.5 4.42 2.5 8.27 0 .92-.07 3.44-.139 5.82-.069 1.89-.14 3.58-.14 4.98 0 1.68.209 9.04.279 11.63a41.762 41.762 0 0 0 -5.278-.35 27.816 27.816 0 0 0 -4.583.35c.348-6.51.556-12.82.556-18.22 0-3.79-.277-5.75-.973-7.15a4.789 4.789 0 0 0 -4.513-2.81 5.186 5.186 0 0 0 -5 3.44c-.624 1.68-.972 4.84-.972 9.67 0 2.67.138 7.71.486 15.07a33.726 33.726 0 0 0 -4.93-.35 34.579 34.579 0 0 0 -5 .35c.486-7.29.555-9.74.555-15.35 0-5.74-.279-8.41-.9-9.95a4.615 4.615 0 0 0 -4.444-2.88 5.124 5.124 0 0 0 -5.068 3.86c-.556 1.96-.7 4.13-.7 11.99 0 3.5.209 9.04.417 12.33a42.047 42.047 0 0 0 -4.861-.35 39.137 39.137 0 0 0 -5.069.35c.417-6.02.624-12.05.624-18.15 0-5.4-.207-9.81-.624-15.07a33.675 33.675 0 0 0 5.072.35zm69.237-11.78a5.382 5.382 0 1 1 -10.763 0 5.366 5.366 0 0 1 5.416-5.47 5.44 5.44 0 0 1 5.347 5.47zm-5.068 11.78a30.212 30.212 0 0 0 4.789-.35c-.276 4.13-.555 12.2-.555 16.89 0 5.61.21 11.99.555 16.33a32.169 32.169 0 0 0 -5-.35 39.858 39.858 0 0 0 -5.347.35c.486-6.16.7-12.05.7-18.36a145.115 145.115 0 0 0 -.7-14.86 49.105 49.105 0 0 0 5.556.35zm-77.874 19.8h-17.325v-7.08h17.323v7.08z" fill="#583c27" fill-rule="evenodd" transform="translate(-264.25 -8064.38)"/></svg>