<svg height="52.9" viewBox="0 0 294.156 52.9" width="294.156" xmlns="http://www.w3.org/2000/svg"><path d="m288.7 6615.21a6 6 0 0 0 -4.812-1.89 6.7 6.7 0 0 0 -6.229 3.76c-1.385 2.5-2.076 5.99-2.076 10.44q0 6.285 2.63 9.63t7.684 3.34a9.164 9.164 0 0 0 4.153-1 8.419 8.419 0 0 0 2.977-2.24l.83.69a15.162 15.162 0 0 0 -.83 2q-.348 1.035-.692 2.07a13.177 13.177 0 0 1 -3.842 1.96 17.02 17.02 0 0 1 -5.5.8 22.2 22.2 0 0 1 -8.516-1.45 14.617 14.617 0 0 1 -5.573-3.93 14.962 14.962 0 0 1 -3.011-5.62 22.817 22.817 0 0 1 -.9-6.31 18.99 18.99 0 0 1 1.281-7.04 15.978 15.978 0 0 1 3.67-5.59 17.245 17.245 0 0 1 5.779-3.69 20.445 20.445 0 0 1 7.546-1.34 21.556 21.556 0 0 1 6.68.9 26.573 26.573 0 0 1 5.227 2.34 19.735 19.735 0 0 0 -1.557 3.38 25.2 25.2 0 0 0 -1.074 3.79h-1.661a10.317 10.317 0 0 0 -2.184-5zm14.228-11.89q-.142-5.655-.416-11.45.9.135 2.284.24c.923.07 1.893.1 2.908.1s1.984-.03 2.907-.1 1.685-.15 2.286-.24q-.279 5.79-.417 11.45t-.138 12.41l.138.14a13.384 13.384 0 0 1 4.395-4.48 11.109 11.109 0 0 1 5.921-1.59q5.192 0 8 3t2.8 9.69q0 3.51-.139 6.21c-.092 1.79-.139 3.58-.139 5.38 0 1.47.035 3.07.105 4.79s.148 3.39.243 5a15.82 15.82 0 0 0 -2.285-.14h-5.816a15.731 15.731 0 0 0 -2.283.14 82.47 82.47 0 0 0 .622-8.45q.138-4.86.139-11.14 0-4.335-1.49-6.38a5.275 5.275 0 0 0 -8.757.66 15.811 15.811 0 0 0 -1.453 7.45v2.76c0 .64.01 1.57.035 2.79s.056 2.55.1 4 .1 2.92.173 4.41.149 2.8.244 3.9a15.826 15.826 0 0 0 -2.286-.14h-5.809a15.756 15.756 0 0 0 -2.284.14q.276-5.58.416-11.24t.137-12.42v-4.48q-.001-6.765-.138-12.41zm39.591 16.82a17.056 17.056 0 0 1 3.774-5.75 15.217 15.217 0 0 1 5.434-3.45 18.106 18.106 0 0 1 6.335-1.14q8.1 0 12.53 4.55t4.429 12.35a21.794 21.794 0 0 1 -1.245 7.58 16.545 16.545 0 0 1 -3.5 5.76 14.19 14.19 0 0 1 -5.363 3.56 19.363 19.363 0 0 1 -6.854 1.17 23.083 23.083 0 0 1 -6.127-.83 14.7 14.7 0 0 1 -5.435-2.79 14.357 14.357 0 0 1 -3.911-5.14 18.287 18.287 0 0 1 -1.488-7.8 21.116 21.116 0 0 1 1.424-8.07zm20.735-3.89a5.2 5.2 0 0 0 -5.055-3.35q-3.183 0-5.018 3.73t-1.835 11.65a38.722 38.722 0 0 0 .346 5.38 16.367 16.367 0 0 0 1.144 4.31 7.356 7.356 0 0 0 2.076 2.87 4.952 4.952 0 0 0 3.218 1.03q6.647 0 6.646-16.21.003-6.06-1.519-9.41zm42.143-1.04a6 6 0 0 0 -4.811-1.89 6.7 6.7 0 0 0 -6.23 3.76c-1.384 2.5-2.076 5.99-2.076 10.44q0 6.285 2.631 9.63t7.683 3.34a9.164 9.164 0 0 0 4.153-1 8.419 8.419 0 0 0 2.977-2.24l.83.69a15.3 15.3 0 0 0 -.83 2q-.348 1.035-.692 2.07a13.171 13.171 0 0 1 -3.841 1.96 17.028 17.028 0 0 1 -5.5.8 22.2 22.2 0 0 1 -8.517-1.45 14.605 14.605 0 0 1 -5.572-3.93 14.964 14.964 0 0 1 -3.012-5.62 22.854 22.854 0 0 1 -.9-6.31 18.99 18.99 0 0 1 1.281-7.04 15.992 15.992 0 0 1 3.67-5.59 17.245 17.245 0 0 1 5.779-3.69 20.451 20.451 0 0 1 7.547-1.34 21.549 21.549 0 0 1 6.679.9 26.52 26.52 0 0 1 5.227 2.34 19.735 19.735 0 0 0 -1.557 3.38 25.2 25.2 0 0 0 -1.074 3.79h-1.661a10.317 10.317 0 0 0 -2.181-5zm15.091 4.93a17.058 17.058 0 0 1 3.775-5.75 15.2 15.2 0 0 1 5.433-3.45 18.111 18.111 0 0 1 6.336-1.14q8.1 0 12.53 4.55t4.429 12.35a21.771 21.771 0 0 1 -1.246 7.58 16.528 16.528 0 0 1 -3.5 5.76 14.2 14.2 0 0 1 -5.364 3.56 19.361 19.361 0 0 1 -6.853 1.17 23.077 23.077 0 0 1 -6.127-.83 14.7 14.7 0 0 1 -5.436-2.79 14.38 14.38 0 0 1 -3.911-5.14 18.288 18.288 0 0 1 -1.487-7.8 21.116 21.116 0 0 1 1.424-8.07zm20.736-3.89a5.2 5.2 0 0 0 -5.055-3.35q-3.185 0-5.018 3.73t-1.835 11.65a38.884 38.884 0 0 0 .345 5.38 16.406 16.406 0 0 0 1.144 4.31 7.366 7.366 0 0 0 2.076 2.87 4.952 4.952 0 0 0 3.218 1.03q6.647 0 6.647-16.21.003-6.06-1.519-9.41zm57.013-.38a14.624 14.624 0 0 1 4.533-4.48 11.108 11.108 0 0 1 5.92-1.59q5.193 0 8 3t2.805 9.69q0 3.51-.139 6.21c-.093 1.79-.139 3.58-.139 5.38 0 1.47.034 3.07.1 4.79s.149 3.39.243 5a15.8 15.8 0 0 0 -2.285-.14h-5.816a15.751 15.751 0 0 0 -2.283.14 81.9 81.9 0 0 0 .622-8.45q.139-4.86.139-11.14 0-4.335-1.489-6.38a5.276 5.276 0 0 0 -8.758.66 15.824 15.824 0 0 0 -1.452 7.45v2.76c0 2.8.035 5.45.1 7.93s.218 4.87.45 7.17a15.491 15.491 0 0 0 -2.25-.14h-5.851a16.691 16.691 0 0 0 -2.283.14q.345-3.45.448-7.17c.07-2.48.1-5.13.1-7.93v-2.76q0-4.215-.1-7.9t-.448-7.41q1.246.135 2.457.24c.807.07 1.627.1 2.457.1s1.65-.03 2.457-.1 1.673-.15 2.6-.24l-.276 5.17h.139zm41.536 16.69a12.848 12.848 0 0 0 1.7 4.17 8 8 0 0 0 7.027 3.76 12.952 12.952 0 0 0 8.514-3.1l.831.62-1.522 3.86a13.74 13.74 0 0 1 -4.155 2.1 20.926 20.926 0 0 1 -6.368.8 21.922 21.922 0 0 1 -6.438-.93 13.783 13.783 0 0 1 -5.366-3.07 15.011 15.011 0 0 1 -3.668-5.42 20.479 20.479 0 0 1 -1.35-7.83 22.714 22.714 0 0 1 1.211-7.79 15.4 15.4 0 0 1 3.357-5.52 13.784 13.784 0 0 1 5.088-3.31 18.229 18.229 0 0 1 6.4-1.1q6.852 0 10.486 4t3.635 11.31v1.45a3.211 3.211 0 0 1 -.069.83h-19.864a22.965 22.965 0 0 0 .554 5.17zm8.825-16.55q-1.141-3.105-3.841-3.11a3.494 3.494 0 0 0 -2.562 1.04 7.462 7.462 0 0 0 -1.661 2.65 17.706 17.706 0 0 0 -.935 3.66 34.724 34.724 0 0 0 -.38 4.03h10.66a26.505 26.505 0 0 0 -1.279-8.27zm-70.8 14.76h-17.298v-6.98h17.3v6.98z" fill="#583c27" fill-rule="evenodd" transform="translate(-265 -6591.88)"/></svg>